<svg id="fwd-15-icon" xmlns="http://www.w3.org/2000/svg" viewBox="0 0 20 20"><path d="M15.81 5A6.93 6.93 0 0010 2a8 8 0 108 8h2A10 10 0 1110 0a8.9 8.9 0 017 3.27V0h2v7h-7V5z" fill-rule="evenodd"/><path d="M8.06 9.37l-.86.8-.37-.45 1.3-1.08h.57v4.7h-.64V9.37zM12.42 9.24h-1.91v1.18h.63a1.73 1.73 0 01.6.11 1.32 1.32 0 01.46.32 1.54 1.54 0 01.3.49 1.93 1.93 0 01.1.63 1.51 1.51 0 01-.48 1.13 1.6 1.6 0 01-.53.32 2 2 0 01-.64.11 1.57 1.57 0 01-.86-.25 1.34 1.34 0 01-.56-.7l.64-.22a1.08 1.08 0 00.34.47A1 1 0 0011 13a.89.89 0 00.36-.07.7.7 0 00.29-.19.75.75 0 00.2-.3A1.09 1.09 0 0012 12a1 1 0 00-.31-.78 1.23 1.23 0 00-.82-.25 3.62 3.62 0 00-.46.06 2.21 2.21 0 00-.51.18l.05-2.47h2.53z"/></svg>