<svg id="rwd-15-icon" xmlns="http://www.w3.org/2000/svg" viewBox="0 0 20 20"><path d="M4.19 5H8v2H1V0h2v3.28A8.91 8.91 0 0110 0 10 10 0 110 10h2a8 8 0 108-8 7 7 0 00-5.81 3z" fill-rule="evenodd"/><path d="M8.06 9.38l-.87.79-.37-.44 1.31-1.09h.56v4.71h-.63V9.38zM12.41 9.25h-1.9v1.17h.63a1.53 1.53 0 01.6.12 1.44 1.44 0 01.46.31 1.32 1.32 0 01.29.5 1.94 1.94 0 01.11.63 1.51 1.51 0 01-.13.63 1.45 1.45 0 01-.36.49 1.56 1.56 0 01-.52.32 2.06 2.06 0 01-.65.11 1.54 1.54 0 01-.86-.25 1.27 1.27 0 01-.55-.7l.64-.22a.91.91 0 00.34.41 1 1 0 00.53.14 1.13 1.13 0 00.36-.06 1 1 0 00.29-.19 1.27 1.27 0 00.2-.31A1.09 1.09 0 0012 12a.94.94 0 00-.32-.77 1.26 1.26 0 00-.82-.26 3.47 3.47 0 00-.45.06 2.82 2.82 0 00-.51.19V8.69h2.52z"/></svg>